<svg width="10" height="21" viewBox="0 0 10 21" fill="none" xmlns="http://www.w3.org/2000/svg">
<path d="M1.87803 10.9786C1.98131 10.7165 2.02897 10.3987 2.09252 10.0015C2.18785 9.29449 2.33084 8.59543 2.53738 7.91225C2.81542 8.11879 3.12523 8.26972 3.45094 8.373C3.35561 8.6272 3.18084 9.11178 3.00608 9.61225C2.49766 11.1216 2.56121 11.3123 2.59299 11.4076C2.74393 11.8524 2.68037 12.059 2.61682 12.1225C2.58505 12.1464 2.53738 12.1464 2.50561 12.1225C2.36262 12.0431 2.20374 12.0828 2.11635 12.2338C2.09252 12.2814 1.99719 12.337 1.94159 12.337C1.7271 12.3132 1.5285 12.1781 1.49673 12.0749C1.42523 11.8445 1.63177 11.4711 1.76682 11.2249C1.81448 11.1295 1.86215 11.0581 1.88598 10.9866L1.87803 10.9786Z" fill="#3C3C3B"/>
<path d="M6.85092 1.29486C6.79531 1.31075 6.73176 1.31869 6.67615 1.31869C6.53316 1.31869 6.39017 1.30281 6.25512 1.27103C5.91353 1.20748 5.57194 1.36636 5.50839 1.62057V1.65234C5.43689 1.8986 5.38923 2.0972 5.11914 2.24019C4.80932 2.08132 4.42007 2.20047 4.26119 2.51029C4.09437 2.82805 4.21352 3.2173 4.53128 3.37618C4.3724 3.57478 4.19764 3.76543 4.01493 3.94814C3.80044 3.87665 3.25231 3.63833 2.88689 3.11403C2.66445 2.78038 2.54529 2.39907 2.54529 1.99393C2.52941 1.41402 2.69623 0.94533 3.03782 0.595796C3.46679 0.158879 4.08642 0 4.48362 0C6.00091 0 6.6126 0.468693 6.84297 0.746731C6.98596 0.921498 7.01774 1.07243 7.0098 1.12804C7.0098 1.20748 6.9383 1.27898 6.85886 1.28692L6.85092 1.29486Z" fill="#3C3C3B"/>
<path d="M5.78645 4.4327C5.5243 4.39298 5.29392 4.36915 5.14299 4.48831C4.98411 4.61541 4.89673 4.86167 4.84906 5.05233C4.57897 4.90934 4.29299 4.78223 4.007 4.67896C4.08644 4.48831 4.16588 4.31354 4.19766 4.24999C4.31682 4.13877 4.84112 3.63036 4.95233 3.34438V3.32849C4.95233 3.32849 4.95233 3.32055 4.95233 3.3126C4.95233 3.3126 4.95233 3.3126 4.95233 3.30466V3.28877C4.95233 3.28877 4.95233 3.28083 4.95233 3.27288C4.95233 3.26494 4.95233 3.26494 4.95233 3.257C4.95233 3.257 4.95233 3.24905 4.95233 3.24111C4.95233 3.24111 4.95233 3.23316 4.95233 3.22522C4.95233 3.21728 4.95233 3.21728 4.94439 3.20933C4.93645 3.20139 4.94439 3.20139 4.93645 3.19344C4.9285 3.1855 4.93645 3.1855 4.9285 3.17756C4.92056 3.16961 4.92056 3.16961 4.91261 3.16961C4.90467 3.16961 4.90467 3.16961 4.89673 3.16167C4.88878 3.15372 4.88878 3.16167 4.88084 3.15372C4.88084 3.15372 4.87289 3.15372 4.86495 3.14578C4.85701 3.14578 4.84112 3.14578 4.83317 3.13784C4.77757 3.13784 4.72196 3.114 4.6743 3.07428C4.65046 3.05045 4.62663 3.02662 4.61074 3.00279C4.57102 2.94718 4.55514 2.88363 4.56308 2.82008C4.56308 2.76447 4.58691 2.70886 4.61869 2.66914C4.71402 2.5341 4.90467 2.51026 5.03177 2.60559C5.03177 2.60559 5.03972 2.60559 5.04766 2.61354C5.04766 2.61354 5.05561 2.61354 5.06355 2.61354C5.06355 2.61354 5.07149 2.61354 5.07944 2.61354C5.08738 2.61354 5.08738 2.61354 5.09532 2.61354C5.10327 2.61354 5.10327 2.61354 5.11121 2.61354C5.11916 2.61354 5.11916 2.61354 5.1271 2.61354C5.13504 2.61354 5.13505 2.61354 5.14299 2.61354C5.15093 2.61354 5.15093 2.61354 5.15888 2.61354C5.15888 2.61354 5.16682 2.61354 5.17476 2.61354H5.19065C5.69907 2.40699 5.78645 2.04952 5.85794 1.75559V1.72381C5.85794 1.72381 6.02477 1.60465 6.21542 1.63643C6.33458 1.66026 6.45374 1.67615 6.58084 1.68409C6.65234 1.89064 6.68412 2.11307 6.66028 2.32755C6.6444 2.45466 6.66028 2.57382 6.68411 2.70092C6.72383 2.84391 6.79533 2.9869 6.89066 3.09812C6.96215 3.1855 6.97804 3.21728 6.97804 3.27288C6.97804 3.28877 6.94627 3.33644 6.86683 3.39999C6.7 3.51915 6.61262 3.63831 6.58879 3.75747C6.58879 3.75747 6.58879 3.75747 6.58879 3.76541C6.58084 3.83691 6.5729 3.9084 6.56496 3.97989C6.54907 4.20233 6.53318 4.34532 6.41402 4.4327C6.3028 4.52008 6.03271 4.48831 5.81822 4.45653L5.78645 4.4327Z" fill="#3C3C3B"/>
<path d="M6.73177 11.2963C6.66027 11.2248 6.56494 11.1374 6.42195 10.9944C6.39812 10.5972 6.3584 10.1603 6.31074 9.69955C7.36728 11.05 7.58177 11.0897 7.68504 11.1056C8.04252 11.1612 8.14579 11.2963 8.15373 11.3519C8.15373 11.3996 8.11402 11.4234 8.09018 11.4313C7.93925 11.5028 7.88364 11.6538 7.96308 11.8126C7.99486 11.8841 8.0028 12.0033 7.97102 12.0589C7.89953 12.1781 7.59766 12.2178 7.407 12.194C7.27196 12.1781 7.14485 11.9239 7.04953 11.7411C6.97803 11.5982 6.91448 11.479 6.83504 11.3996C6.79532 11.3598 6.76354 11.3281 6.72382 11.2883L6.73177 11.2963Z" fill="#3C3C3B"/>
<path d="M6.08832 11.0897C6.11215 11.4154 6.12804 11.7173 6.13598 11.9715C6.13598 12.0192 6.09626 12.0668 6.04065 12.0668H3.01401C3.05373 11.892 3.04578 11.6458 2.91868 11.2963C2.87102 11.0818 3.32382 9.69157 3.78457 8.4682C3.84018 8.47615 3.8799 8.48409 3.88784 8.48409C3.96728 8.49204 4.03878 8.45232 4.07055 8.38082C4.14205 8.20605 4.8014 6.68082 4.7299 6.07708C4.72196 5.98175 4.63457 5.9182 4.53925 5.92614C4.44392 5.93408 4.38037 6.02147 4.38831 6.1168C4.43597 6.51399 4.03083 7.59437 3.8084 8.11867C3.57008 8.06306 3.05373 7.91213 2.6327 7.55465C2.90279 6.33128 3.25233 5.56866 3.81635 4.98875C4.03083 5.06819 4.5313 5.25885 4.88084 5.48128C5.10327 5.62427 5.17476 5.71165 5.19859 5.75932C5.21448 5.78315 5.22242 5.80698 5.23037 5.83081C5.65934 6.78409 5.96916 9.3341 6.08832 11.0659C6.08832 11.0738 6.08832 11.0818 6.08832 11.0897Z" fill="#3C3C3B"/>
<path d="M6.89065 16.3009C7.18457 17.3813 7.4785 18.5014 7.85186 19.7168L6.73177 19.7962C6.35046 18.978 3.95933 13.7986 3.47475 12.4084H5.7626C6.19158 13.6873 6.53317 14.9584 6.89065 16.3009Z" fill="#3C3C3B"/>
<path d="M6.63643 20.9007C6.61259 20.71 6.65231 20.4399 6.74764 20.146L8.05839 20.0507C8.60653 20.2175 9.10699 20.4955 9.09111 20.6306C9.06727 20.8053 8.41587 21.0516 6.72381 20.9881C6.67615 20.9881 6.64437 20.9404 6.63643 20.8927V20.9007Z" fill="#3C3C3B"/>
<path d="M4.2453 15.1729C3.80044 16.3566 2.87894 17.8739 2.26726 18.8828C2.08455 19.1767 1.94156 19.423 1.83034 19.6216L0.734077 19.0655C1.07567 18.3902 2.38642 15.6178 2.98222 12.4164H3.11726C3.27614 12.901 3.72895 13.9814 4.25325 15.1809L4.2453 15.1729Z" fill="#3C3C3B"/>
<path d="M0.0350189 20.0822C0.0350189 20.0822 -0.0126455 20.0028 0.00324239 19.9631C0.066794 19.8121 0.265393 19.5818 0.519599 19.3514L1.78269 19.9949C2.0925 20.3523 2.35465 20.829 2.25932 20.9481C2.14811 21.0911 1.46493 20.9799 0.0270748 20.0822H0.0350189Z" fill="#3C3C3B"/>
</svg>
